<svg width="89.404" height="79.985" enable-background="new 0 0 45 45" version="1.1" viewBox="0 0 89.404 79.985" xmlns="http://www.w3.org/2000/svg">
 <g fill="none" stroke="#b388ff" stroke-width="4.3">
  <ellipse cx="44.702" cy="39.992" rx="42.552" ry="17.192"/>
  <ellipse transform="rotate(-60)" cx="-12.283" cy="58.709" rx="42.552" ry="17.192"/>
  <ellipse transform="rotate(240)" cx="-56.986" cy="18.717" rx="42.552" ry="17.192"/>
 </g>
 <ellipse cx="44.702" cy="36.441" rx="12.801" ry="5.0373" fill="none" stroke="#b388ff" stroke-width="2.144"/>
 <path d="m31.916 37.111v5.4863s0.033822 0.70052-0.017578 0.94727c2.7e-4 2.7819 5.7313 5.0371 12.801 5.0371 0.44184-3e-6 0.87828-0.0082 1.3086-0.02539 6.4547-0.25798 11.492-2.4037 11.492-5.0117-0.007179-0.034462-0.003634-0.10918-0.007812-0.1582-0.02574-0.30196-0.009766-0.78906-0.009766-0.78906v-5.4863h-0.015625c-0.0035 0.01921-0.013528 0.037501-0.017578 0.056641v-0.021485c-0.3942 1.9637-3.6143 3.5914-8.0156 4.2832-0.73356 0.1153-1.4995 0.20506-2.291 0.26562-0.79165 0.0603-1.6089 0.091787-2.4434 0.091797-0.83432-2.87e-4 -1.6518-0.031226-2.4434-0.091797-0.79156-0.060569-1.5575-0.15032-2.291-0.26562-4.4014-0.69183-7.6214-2.3195-8.0156-4.2832v0.021485c-0.0041-0.01914-0.014068-0.037431-0.017578-0.056641h-0.015625z" fill="#b388ff" stroke="#b388ff" stroke-width="2.144"/>
</svg>
